<?xml version="1.0" encoding="UTF-8"?>
<svg xmlns="http://www.w3.org/2000/svg" xmlns:xlink="http://www.w3.org/1999/xlink" width="300px" height="78px" viewBox="0 0 301 78" version="1.1">
<g id="surface1">
<path style=" stroke:none;fill-rule:nonzero;fill:rgb(3.921569%,0%,50.196078%);fill-opacity:1;" d="M 110.484375 35.800781 C 110.484375 16.0625 85.851562 0 55.636719 0 C 25.285156 0 0.789062 16.0625 0.789062 35.800781 C 0.789062 36.34375 0.789062 37.707031 0.789062 37.84375 C 0.789062 58.804688 22.292969 75.820312 55.636719 75.820312 C 89.253906 75.820312 110.484375 58.804688 110.484375 37.84375 Z M 110.484375 35.800781 "/>
<path style=" stroke:none;fill-rule:nonzero;fill:rgb(16.470588%,73.72549%,100%);fill-opacity:1;" d="M 108.308594 35.800781 C 108.308594 54.449219 84.761719 69.558594 55.636719 69.558594 C 26.511719 69.558594 2.964844 54.449219 2.964844 35.800781 C 2.964844 17.152344 26.511719 2.042969 55.636719 2.042969 C 84.761719 2.179688 108.308594 17.152344 108.308594 35.800781 "/>
<path style=" stroke:none;fill-rule:nonzero;fill:rgb(100%,100%,100%);fill-opacity:1;" d="M 38.078125 25.183594 C 38.078125 25.183594 37.535156 25.726562 37.808594 26.273438 C 38.625 27.359375 41.210938 27.90625 43.796875 27.359375 C 45.292969 26.953125 47.335938 25.457031 49.238281 23.957031 C 51.28125 22.324219 53.324219 20.691406 55.5 20.011719 C 57.679688 19.328125 59.039062 19.601562 59.992188 19.875 C 61.082031 20.148438 62.167969 20.828125 64.074219 22.324219 C 67.75 25.046875 82.175781 37.707031 84.625 39.886719 C 86.667969 38.933594 95.652344 35.121094 107.765625 32.398438 C 106.949219 25.863281 103 19.875 97.011719 14.972656 C 88.710938 18.511719 78.503906 20.28125 68.429688 15.382812 C 68.429688 15.382812 62.988281 12.796875 57.679688 12.933594 C 49.785156 13.066406 46.382812 16.605469 42.707031 20.148438 Z M 38.078125 25.183594 "/>
<path style=" stroke:none;fill-rule:nonzero;fill:rgb(100%,100%,100%);fill-opacity:1;" d="M 84.21875 41.109375 C 84.082031 40.972656 67.207031 26.136719 63.394531 23.277344 C 61.21875 21.644531 59.992188 21.234375 58.632812 20.964844 C 57.949219 20.828125 56.996094 20.964844 56.316406 21.234375 C 54.546875 21.78125 52.234375 23.277344 50.191406 24.910156 C 48.015625 26.679688 45.972656 28.179688 44.203125 28.585938 C 41.890625 29.265625 38.894531 28.585938 37.535156 27.769531 C 36.992188 27.359375 36.582031 26.953125 36.445312 26.542969 C 35.902344 25.457031 36.855469 24.503906 36.992188 24.367188 L 41.617188 19.328125 C 42.164062 18.785156 42.707031 18.242188 43.25 17.695312 C 41.753906 17.832031 40.394531 18.242188 39.03125 18.648438 C 37.398438 19.058594 35.765625 19.601562 34.132812 19.601562 C 33.453125 19.601562 29.777344 19.058594 29.097656 18.785156 C 24.878906 17.695312 21.203125 16.472656 15.625 13.886719 C 8.953125 18.785156 4.597656 24.910156 3.375 31.71875 C 4.328125 31.988281 5.824219 32.398438 6.503906 32.535156 C 21.476562 35.800781 26.101562 39.339844 27.054688 40.019531 C 28.007812 39.066406 29.234375 38.386719 30.730469 38.386719 C 32.363281 38.386719 33.859375 39.203125 34.8125 40.566406 C 35.628906 39.886719 36.855469 39.339844 38.351562 39.339844 C 39.03125 39.339844 39.714844 39.476562 40.53125 39.75 C 42.164062 40.292969 43.117188 41.519531 43.523438 42.472656 C 44.066406 42.199219 44.75 42.0625 45.566406 42.0625 C 46.382812 42.0625 47.199219 42.199219 48.015625 42.605469 C 50.738281 43.832031 51.144531 46.554688 51.007812 48.597656 C 51.144531 48.597656 51.417969 48.597656 51.554688 48.597656 C 54.820312 48.597656 57.542969 51.320312 57.542969 54.585938 C 57.542969 55.539062 57.269531 56.492188 56.863281 57.445312 C 57.816406 57.988281 59.992188 59.078125 62.035156 58.804688 C 63.667969 58.671875 64.210938 58.125 64.484375 57.71875 C 64.621094 57.445312 64.753906 57.308594 64.621094 57.035156 L 60.402344 52.273438 C 60.402344 52.273438 59.71875 51.589844 59.992188 51.320312 C 60.265625 51.046875 60.671875 51.457031 60.945312 51.726562 C 63.121094 53.496094 65.707031 56.21875 65.707031 56.21875 C 65.707031 56.21875 65.980469 56.628906 66.933594 56.765625 C 67.75 56.902344 69.246094 56.765625 70.335938 55.949219 C 70.609375 55.675781 70.878906 55.402344 71.015625 55.132812 C 72.105469 53.769531 70.878906 52.410156 70.878906 52.410156 L 65.980469 46.828125 C 65.980469 46.828125 65.300781 46.148438 65.574219 45.875 C 65.84375 45.601562 66.253906 46.011719 66.523438 46.28125 C 68.023438 47.644531 70.335938 49.820312 72.378906 51.863281 C 72.785156 52.136719 74.691406 53.359375 77.140625 51.726562 C 78.636719 50.773438 78.910156 49.550781 78.910156 48.597656 C 78.773438 47.371094 77.820312 46.554688 77.820312 46.554688 L 71.015625 39.75 C 71.015625 39.75 70.335938 39.203125 70.609375 38.796875 C 70.878906 38.523438 71.289062 38.933594 71.5625 39.203125 C 73.738281 40.972656 79.589844 46.28125 79.589844 46.28125 C 79.726562 46.28125 81.632812 47.78125 84.21875 46.148438 C 85.171875 45.601562 85.714844 44.785156 85.714844 43.695312 C 85.441406 42.199219 84.21875 41.109375 84.21875 41.109375 "/>
<path style=" stroke:none;fill-rule:nonzero;fill:rgb(100%,100%,100%);fill-opacity:1;" d="M 51.554688 49.6875 C 50.464844 49.6875 49.375 50.230469 49.238281 50.230469 C 49.105469 50.230469 49.238281 49.820312 49.375 49.550781 C 49.511719 49.277344 50.875 45.195312 47.472656 43.695312 C 44.886719 42.605469 43.386719 43.832031 42.84375 44.378906 C 42.707031 44.511719 42.570312 44.511719 42.570312 44.378906 C 42.570312 43.695312 42.164062 41.65625 39.984375 40.972656 C 36.855469 40.019531 34.8125 42.199219 34.269531 43.015625 C 33.996094 41.246094 32.5 39.75 30.59375 39.75 C 28.554688 39.75 26.917969 41.382812 26.917969 43.425781 C 26.917969 45.464844 28.554688 47.097656 30.59375 47.097656 C 31.546875 47.097656 32.5 46.691406 33.179688 46.011719 C 33.179688 46.011719 33.179688 46.011719 33.179688 46.148438 C 33.042969 47.097656 32.773438 50.367188 36.175781 51.726562 C 37.535156 52.273438 38.761719 51.863281 39.714844 51.183594 C 39.984375 50.910156 39.984375 51.046875 39.984375 51.320312 C 39.847656 52.136719 39.984375 54.042969 42.570312 54.996094 C 44.476562 55.8125 45.703125 54.996094 46.382812 54.3125 C 46.652344 54.042969 46.789062 54.042969 46.789062 54.585938 C 46.925781 57.035156 48.96875 58.941406 51.417969 58.941406 C 54.003906 58.941406 56.046875 56.902344 56.046875 54.3125 C 56.179688 51.863281 54.140625 49.820312 51.554688 49.6875 "/>
<path style=" stroke:none;fill-rule:nonzero;fill:rgb(3.921569%,0%,50.196078%);fill-opacity:1;" d="M 84.898438 39.339844 C 79.726562 34.847656 67.613281 24.367188 64.484375 21.917969 C 62.578125 20.554688 61.351562 19.738281 60.265625 19.464844 C 59.71875 19.328125 59.039062 19.195312 58.222656 19.195312 C 57.40625 19.195312 56.453125 19.328125 55.636719 19.601562 C 53.59375 20.28125 51.417969 21.917969 49.375 23.550781 L 49.238281 23.6875 C 47.335938 25.183594 45.429688 26.679688 43.933594 27.089844 C 43.25 27.226562 42.570312 27.359375 42.027344 27.359375 C 40.394531 27.359375 38.894531 26.816406 38.351562 26.136719 C 38.214844 26 38.351562 25.863281 38.488281 25.589844 L 42.980469 20.417969 C 46.519531 16.878906 49.921875 13.476562 57.679688 13.339844 C 57.816406 13.339844 57.949219 13.339844 58.085938 13.339844 C 62.988281 13.339844 67.75 15.519531 68.292969 15.789062 C 72.921875 17.96875 77.550781 19.058594 82.3125 19.058594 C 87.210938 19.058594 92.25 17.832031 97.691406 15.382812 C 97.148438 14.835938 96.46875 14.429688 95.785156 13.886719 C 91.160156 15.925781 86.667969 16.878906 82.3125 16.878906 C 77.957031 16.878906 73.464844 15.789062 69.246094 13.75 C 68.976562 13.613281 63.667969 11.164062 58.085938 11.164062 C 57.949219 11.164062 57.816406 11.164062 57.679688 11.164062 C 51.144531 11.296875 47.472656 13.613281 45.019531 15.65625 C 42.570312 15.65625 40.53125 16.335938 38.625 16.878906 C 36.992188 17.289062 35.492188 17.695312 34.132812 17.695312 C 33.589844 17.695312 32.5 17.695312 32.5 17.695312 C 30.867188 17.695312 22.835938 15.65625 16.441406 13.203125 C 15.757812 13.613281 15.214844 14.15625 14.535156 14.703125 C 21.203125 17.425781 29.371094 19.601562 31.957031 19.738281 C 32.636719 19.738281 33.453125 19.875 34.132812 19.875 C 35.765625 19.875 37.535156 19.464844 39.167969 18.921875 C 40.121094 18.648438 41.210938 18.378906 42.300781 18.105469 C 42.027344 18.378906 41.753906 18.648438 41.347656 19.058594 L 36.71875 24.09375 C 36.308594 24.503906 35.492188 25.457031 36.039062 26.679688 C 36.308594 27.226562 36.71875 27.632812 37.261719 28.042969 C 38.351562 28.722656 40.394531 29.265625 42.164062 29.265625 C 42.84375 29.265625 43.523438 29.265625 44.066406 28.996094 C 45.972656 28.585938 48.015625 26.953125 50.191406 25.183594 C 51.960938 23.820312 54.410156 22.050781 56.179688 21.507812 C 56.726562 21.371094 57.40625 21.234375 57.816406 21.234375 C 57.949219 21.234375 58.085938 21.234375 58.222656 21.234375 C 59.449219 21.371094 60.671875 21.78125 62.851562 23.414062 C 66.660156 26.273438 83.539062 41.109375 83.675781 41.246094 C 83.675781 41.246094 84.761719 42.199219 84.625 43.695312 C 84.625 44.511719 84.082031 45.328125 83.265625 45.875 C 82.585938 46.28125 81.769531 46.554688 81.089844 46.554688 C 80 46.554688 79.183594 46.011719 79.183594 46.011719 C 79.183594 46.011719 73.332031 40.703125 71.152344 38.933594 C 70.878906 38.660156 70.472656 38.386719 70.199219 38.386719 C 70.0625 38.386719 69.925781 38.523438 69.792969 38.660156 C 69.519531 39.066406 69.792969 39.613281 70.335938 40.019531 L 77.140625 46.828125 C 77.140625 46.828125 77.957031 47.644531 78.09375 48.597656 C 78.09375 49.6875 77.550781 50.640625 76.460938 51.457031 C 75.644531 52 74.828125 52.273438 74.011719 52.273438 C 72.921875 52.273438 72.242188 51.863281 72.105469 51.726562 L 71.152344 50.773438 C 69.382812 49.003906 67.613281 47.234375 66.253906 46.148438 C 65.980469 45.875 65.574219 45.601562 65.300781 45.601562 C 65.164062 45.601562 65.027344 45.601562 64.890625 45.738281 C 64.753906 45.875 64.621094 46.28125 65.027344 46.691406 C 65.164062 46.964844 65.300781 47.097656 65.300781 47.097656 L 70.199219 52.679688 C 70.199219 52.679688 71.152344 53.90625 70.335938 54.996094 L 70.199219 55.265625 C 70.0625 55.402344 69.925781 55.539062 69.792969 55.675781 C 68.976562 56.355469 67.886719 56.492188 67.339844 56.492188 C 67.070312 56.492188 66.933594 56.492188 66.660156 56.492188 C 66.117188 56.355469 65.84375 56.21875 65.707031 56.082031 C 65.4375 55.8125 62.988281 53.226562 60.945312 51.589844 C 60.671875 51.320312 60.402344 51.046875 59.992188 51.046875 C 59.855469 51.046875 59.71875 51.046875 59.582031 51.183594 C 59.175781 51.589844 59.855469 52.273438 59.992188 52.542969 L 64.210938 57.171875 C 64.210938 57.171875 64.210938 57.308594 64.074219 57.445312 C 63.9375 57.71875 63.394531 58.125 61.898438 58.398438 C 61.761719 58.398438 61.488281 58.398438 61.351562 58.398438 C 59.71875 58.398438 58.085938 57.582031 57.269531 57.171875 C 57.679688 56.355469 57.816406 55.402344 57.816406 54.449219 C 57.816406 51.046875 54.957031 48.1875 51.554688 48.1875 C 51.417969 48.1875 51.417969 48.1875 51.28125 48.1875 C 51.417969 46.554688 51.144531 43.558594 48.152344 42.335938 C 47.335938 41.925781 46.382812 41.789062 45.566406 41.789062 C 44.886719 41.789062 44.203125 41.925781 43.660156 42.199219 C 42.980469 40.972656 42.027344 40.019531 40.53125 39.613281 C 39.714844 39.339844 39.03125 39.203125 38.214844 39.203125 C 36.992188 39.203125 35.765625 39.613281 34.675781 40.292969 C 33.722656 39.066406 32.089844 38.25 30.59375 38.25 C 29.234375 38.25 27.871094 38.796875 26.785156 39.75 C 25.421875 38.796875 20.25 35.394531 6.367188 32.261719 C 5.6875 32.125 4.191406 31.71875 3.238281 31.445312 C 3.101562 32.261719 2.964844 32.941406 2.828125 33.757812 C 2.828125 33.757812 5.414062 34.441406 5.960938 34.441406 C 20.113281 37.570312 24.878906 40.835938 25.695312 41.519531 C 25.421875 42.199219 25.285156 42.878906 25.285156 43.558594 C 25.285156 46.554688 27.734375 48.867188 30.59375 48.867188 C 30.867188 48.867188 31.273438 48.867188 31.546875 48.734375 C 31.957031 50.910156 33.453125 52.542969 35.492188 53.359375 C 36.175781 53.632812 36.71875 53.769531 37.398438 53.769531 C 37.808594 53.769531 38.214844 53.769531 38.625 53.632812 C 39.03125 54.585938 39.984375 55.949219 41.890625 56.765625 C 42.570312 57.035156 43.25 57.171875 43.933594 57.171875 C 44.476562 57.171875 45.019531 57.035156 45.566406 56.902344 C 46.519531 59.214844 48.832031 60.847656 51.417969 60.847656 C 53.050781 60.847656 54.683594 60.167969 55.910156 58.941406 C 56.863281 59.488281 59.039062 60.574219 61.21875 60.574219 C 61.488281 60.574219 61.761719 60.574219 62.035156 60.574219 C 64.210938 60.304688 65.164062 59.488281 65.574219 58.804688 C 65.707031 58.671875 65.707031 58.535156 65.84375 58.398438 C 66.390625 58.535156 66.933594 58.671875 67.476562 58.671875 C 68.703125 58.671875 69.792969 58.261719 70.878906 57.445312 C 71.96875 56.628906 72.785156 55.539062 72.921875 54.449219 C 73.332031 54.585938 73.738281 54.585938 74.011719 54.585938 C 75.234375 54.585938 76.460938 54.179688 77.550781 53.496094 C 79.726562 52 80.136719 50.230469 80.136719 49.003906 C 80.542969 49.140625 80.953125 49.140625 81.359375 49.140625 C 82.449219 49.140625 83.539062 48.734375 84.625 48.1875 C 85.988281 47.371094 86.804688 46.011719 86.941406 44.511719 C 87.078125 43.425781 86.804688 42.472656 86.261719 41.519531 C 89.933594 39.886719 98.238281 36.890625 108.171875 34.710938 C 108.171875 33.894531 108.035156 33.214844 107.898438 32.398438 C 96.058594 34.574219 87.210938 38.386719 84.898438 39.339844 M 51.554688 58.671875 C 49.238281 58.671875 47.335938 56.902344 47.199219 54.585938 C 47.199219 54.449219 47.199219 53.90625 46.789062 53.90625 C 46.652344 53.90625 46.519531 54.042969 46.246094 54.179688 C 45.703125 54.585938 45.019531 55.132812 44.203125 55.132812 C 43.796875 55.132812 43.25 54.996094 42.84375 54.859375 C 40.394531 53.90625 40.394531 52.136719 40.53125 51.457031 C 40.53125 51.320312 40.53125 51.046875 40.394531 50.910156 L 40.257812 50.773438 L 40.121094 50.773438 C 39.984375 50.773438 39.847656 50.773438 39.714844 50.910156 C 38.894531 51.457031 38.214844 51.726562 37.535156 51.726562 C 37.128906 51.726562 36.71875 51.589844 36.308594 51.457031 C 33.042969 50.230469 33.316406 47.097656 33.453125 46.28125 C 33.453125 46.148438 33.453125 46.011719 33.316406 45.875 L 33.042969 45.738281 L 32.773438 46.011719 C 32.089844 46.554688 31.273438 46.964844 30.457031 46.964844 C 28.554688 46.964844 27.054688 45.464844 27.054688 43.558594 C 27.054688 41.65625 28.554688 40.15625 30.457031 40.15625 C 32.089844 40.15625 33.589844 41.382812 33.722656 43.015625 L 33.859375 43.96875 L 34.40625 43.152344 C 34.40625 43.015625 35.765625 40.972656 38.351562 40.972656 C 38.761719 40.972656 39.304688 41.109375 39.847656 41.246094 C 41.890625 41.789062 42.164062 43.695312 42.164062 44.378906 C 42.164062 44.785156 42.570312 44.785156 42.570312 44.785156 C 42.707031 44.785156 42.84375 44.648438 42.980469 44.648438 C 43.386719 44.242188 44.203125 43.558594 45.429688 43.558594 C 45.972656 43.558594 46.652344 43.695312 47.335938 43.96875 C 50.464844 45.328125 49.105469 49.277344 49.105469 49.414062 C 48.832031 50.09375 48.832031 50.367188 49.105469 50.503906 L 49.375 50.503906 C 49.511719 50.503906 49.648438 50.503906 49.921875 50.367188 C 50.328125 50.230469 51.007812 49.957031 51.554688 49.957031 C 53.867188 49.957031 55.910156 51.863281 55.910156 54.3125 C 55.910156 56.765625 54.003906 58.671875 51.554688 58.671875 "/>
<path style=" stroke:none;fill-rule:nonzero;fill:rgb(3.921569%,0%,50.196078%);fill-opacity:1;" d="M 297.21875 13.066406 C 295.175781 10.617188 292.183594 9.394531 288.234375 9.394531 C 284.152344 9.394531 281.15625 10.617188 279.253906 13.066406 C 277.210938 15.519531 276.257812 18.511719 276.257812 21.917969 C 276.257812 25.320312 277.210938 28.3125 279.253906 30.765625 C 281.292969 33.214844 284.289062 34.441406 288.234375 34.441406 C 292.316406 34.441406 295.3125 33.214844 297.21875 30.765625 C 299.257812 28.3125 300.210938 25.320312 300.210938 21.917969 C 300.210938 18.378906 299.257812 15.519531 297.21875 13.066406 M 292.316406 27.226562 C 291.367188 28.449219 290.003906 29.132812 288.234375 29.132812 C 286.464844 29.132812 285.105469 28.449219 284.152344 27.226562 C 283.199219 26 282.65625 24.09375 282.65625 21.78125 C 282.65625 19.464844 283.199219 17.558594 284.152344 16.335938 C 285.105469 15.109375 286.464844 14.429688 288.234375 14.429688 C 290.003906 14.429688 291.367188 15.109375 292.316406 16.335938 C 293.269531 17.558594 293.816406 19.464844 293.816406 21.78125 C 293.816406 24.09375 293.269531 26 292.316406 27.226562 "/>
<path style=" stroke:none;fill-rule:nonzero;fill:rgb(3.921569%,0%,50.196078%);fill-opacity:1;" d="M 246.722656 10.890625 C 244.683594 9.9375 242.367188 9.394531 239.78125 9.394531 C 235.835938 9.394531 232.976562 10.480469 231.34375 12.523438 C 230.253906 13.886719 229.710938 15.519531 229.574219 17.558594 L 235.5625 17.558594 C 235.699219 16.605469 235.972656 15.925781 236.378906 15.382812 C 236.925781 14.703125 238.011719 14.292969 239.511719 14.292969 C 240.871094 14.292969 241.824219 14.429688 242.503906 14.835938 C 243.183594 15.246094 243.457031 15.925781 243.457031 16.878906 C 243.457031 17.695312 243.050781 18.242188 242.097656 18.648438 C 241.550781 18.921875 240.734375 19.058594 239.648438 19.195312 L 237.605469 19.464844 C 235.15625 19.738281 233.386719 20.28125 232.160156 20.964844 C 229.847656 22.324219 228.757812 24.367188 228.757812 27.226562 C 228.757812 29.402344 229.4375 31.171875 230.800781 32.398438 C 232.160156 33.621094 233.929688 34.167969 236.109375 34.167969 C 249.582031 34.710938 249.445312 27.089844 249.445312 25.457031 L 249.445312 16.605469 C 249.71875 13.886719 248.628906 11.980469 246.722656 10.890625 M 243.59375 24.367188 C 243.59375 26.410156 242.914062 27.90625 241.824219 28.585938 C 240.734375 29.402344 239.511719 29.8125 238.148438 29.8125 C 237.332031 29.8125 236.515625 29.539062 235.972656 29.132812 C 235.425781 28.722656 235.019531 27.90625 235.019531 26.816406 C 235.019531 25.589844 235.5625 24.773438 236.515625 24.230469 C 237.0625 23.957031 238.011719 23.6875 239.375 23.414062 L 240.734375 23.140625 C 241.417969 23.003906 241.960938 22.867188 242.367188 22.734375 C 242.777344 22.597656 243.183594 22.324219 243.59375 22.1875 Z M 243.59375 24.367188 "/>
<path style=" stroke:none;fill-rule:nonzero;fill:rgb(3.921569%,0%,50.196078%);fill-opacity:1;" d="M 216.101562 14.703125 C 217.597656 14.703125 218.824219 15.246094 219.503906 16.0625 C 220.046875 16.742188 220.320312 17.558594 220.457031 18.378906 L 227.125 18.378906 C 226.71875 14.972656 225.628906 12.660156 223.585938 11.433594 C 221.546875 10.074219 219.09375 9.394531 215.964844 9.394531 C 212.289062 9.394531 209.433594 10.480469 207.390625 12.796875 C 205.347656 14.972656 204.261719 18.105469 204.261719 22.1875 C 204.261719 25.726562 205.214844 28.585938 207.117188 30.902344 C 209.023438 33.078125 211.882812 34.304688 215.964844 34.304688 C 219.910156 34.304688 222.90625 32.941406 224.949219 30.21875 C 226.171875 28.585938 226.988281 26.816406 227.125 24.910156 L 220.59375 24.910156 C 220.457031 26.136719 220.046875 27.089844 219.367188 27.90625 C 218.6875 28.722656 217.597656 29.132812 216.101562 29.132812 C 213.921875 29.132812 212.5625 28.179688 211.746094 26.136719 C 211.335938 25.046875 211.066406 23.6875 211.066406 22.050781 C 211.066406 20.28125 211.335938 18.785156 211.746094 17.695312 C 212.425781 15.65625 213.921875 14.703125 216.101562 14.703125 "/>
<path style=" stroke:none;fill-rule:nonzero;fill:rgb(3.921569%,0%,50.196078%);fill-opacity:1;" d="M 202.355469 9.527344 C 188.746094 9.527344 189.5625 21.507812 189.5625 21.507812 L 189.5625 33.757812 L 195.6875 33.757812 L 195.6875 22.324219 C 195.6875 20.417969 195.957031 19.058594 196.367188 18.105469 C 197.183594 16.472656 198.816406 15.65625 201.402344 15.65625 C 201.539062 15.65625 201.808594 15.65625 202.082031 15.65625 C 202.355469 15.65625 202.761719 15.65625 203.171875 15.789062 L 203.171875 9.527344 C 202.898438 9.527344 202.761719 9.527344 202.628906 9.527344 C 202.628906 9.527344 202.492188 9.527344 202.355469 9.527344 "/>
<path style=" stroke:none;fill-rule:nonzero;fill:rgb(3.921569%,0%,50.196078%);fill-opacity:1;" d="M 179.761719 27.359375 C 179.488281 27.769531 179.21875 28.042969 178.945312 28.3125 C 178.128906 28.996094 176.902344 29.265625 175.542969 29.265625 C 174.183594 29.265625 173.230469 29.132812 172.277344 28.449219 C 170.777344 27.496094 169.828125 25.863281 169.828125 23.550781 L 186.839844 23.550781 C 186.839844 21.507812 186.839844 20.011719 186.566406 18.921875 C 186.292969 17.152344 185.613281 15.519531 184.660156 14.019531 C 183.574219 12.386719 182.210938 11.296875 180.578125 10.480469 C 178.945312 9.800781 177.039062 9.394531 175.132812 9.394531 C 171.730469 9.394531 168.875 10.480469 166.695312 12.660156 C 164.519531 14.835938 163.429688 17.96875 163.429688 22.050781 C 163.429688 26.410156 164.65625 29.539062 166.96875 31.445312 C 169.417969 33.351562 172.140625 34.304688 175.269531 34.304688 C 179.082031 34.304688 181.941406 33.214844 184.117188 30.902344 C 185.207031 29.675781 186.023438 28.449219 186.292969 27.359375 Z M 171.460938 15.925781 C 172.277344 14.972656 173.5 14.566406 175.132812 14.566406 C 176.632812 14.566406 177.855469 14.972656 178.808594 15.789062 C 179.761719 16.605469 180.304688 17.832031 180.441406 19.464844 L 169.828125 19.464844 C 170.097656 17.96875 170.644531 16.742188 171.460938 15.925781 "/>
<path style=" stroke:none;fill-rule:nonzero;fill:rgb(3.921569%,0%,50.196078%);fill-opacity:1;" d="M 160.980469 33.757812 L 155.398438 33.757812 L 155.398438 19.601562 C 155.398438 18.242188 154.992188 15.246094 151.316406 15.246094 C 148.867188 15.246094 147.097656 17.015625 147.097656 19.601562 L 147.097656 33.757812 L 141.515625 33.757812 L 141.515625 19.601562 C 141.515625 18.242188 141.109375 15.246094 137.433594 15.246094 C 134.847656 15.246094 133.214844 17.015625 133.214844 19.601562 L 133.214844 33.757812 L 127.363281 33.757812 L 127.363281 19.738281 C 127.363281 13.886719 131.308594 9.394531 137.296875 9.394531 C 140.292969 9.394531 142.742188 10.617188 144.375 12.660156 C 146.007812 10.617188 148.457031 9.394531 151.316406 9.394531 C 157.441406 9.394531 161.117188 13.613281 161.117188 19.738281 L 161.117188 33.757812 Z M 160.980469 33.757812 "/>
<path style=" stroke:none;fill-rule:nonzero;fill:rgb(3.921569%,0%,50.196078%);fill-opacity:1;" d="M 274.351562 2.042969 C 274.351562 2.042969 268.09375 1.359375 268.09375 6.398438 L 268.09375 13.066406 C 267.410156 11.980469 266.457031 11.164062 265.371094 10.480469 C 264.28125 9.800781 263.054688 9.527344 261.558594 9.527344 C 258.429688 9.527344 255.980469 10.617188 254.210938 12.933594 C 252.304688 15.246094 251.488281 18.511719 251.488281 22.597656 C 251.488281 26.136719 252.441406 28.859375 254.347656 31.171875 C 256.25 33.351562 259.925781 34.304688 263.191406 34.304688 C 274.625 34.304688 274.488281 24.503906 274.488281 24.503906 Z M 267.003906 27.226562 C 266.050781 28.449219 264.824219 29.132812 263.054688 29.132812 C 261.285156 29.132812 260.0625 28.449219 259.109375 27.226562 C 258.292969 25.863281 257.882812 24.09375 257.882812 21.917969 C 257.882812 19.875 258.292969 18.242188 259.109375 16.878906 C 259.925781 15.519531 261.285156 14.835938 263.054688 14.835938 C 264.28125 14.835938 265.234375 15.246094 266.1875 15.925781 C 267.683594 17.152344 268.363281 19.328125 268.363281 22.1875 C 268.363281 24.367188 267.957031 26 267.003906 27.226562 "/>
<path style=" stroke:none;fill-rule:nonzero;fill:rgb(3.921569%,0%,50.196078%);fill-opacity:1;" d="M 133.488281 72.964844 C 133.488281 73.78125 133.214844 74.597656 132.535156 75.140625 C 131.988281 75.6875 131.171875 75.957031 130.355469 75.957031 L 127.363281 75.957031 L 127.363281 54.585938 C 127.363281 50.367188 128.722656 47.78125 131.039062 46.011719 C 132.671875 44.785156 135.257812 43.558594 140.429688 43.695312 C 143.015625 43.832031 145.601562 44.921875 147.234375 46.964844 C 149.273438 49.414062 150.089844 52.273438 150.089844 55.949219 C 150.089844 59.757812 149.140625 62.753906 147.371094 65.066406 C 145.601562 67.382812 143.285156 68.472656 140.429688 68.472656 C 138.929688 68.472656 137.570312 68.199219 136.480469 67.65625 C 135.257812 67.109375 134.304688 66.15625 133.625 64.933594 L 133.625 72.964844 Z M 143.832031 56.21875 C 143.832031 53.90625 143.421875 52.136719 142.46875 50.910156 C 141.515625 49.6875 140.292969 49.003906 138.523438 49.003906 C 136.890625 49.003906 135.664062 49.6875 134.710938 50.910156 C 133.894531 52 133.488281 53.90625 133.488281 56.21875 C 133.488281 58.535156 133.894531 60.167969 134.847656 61.394531 C 135.800781 62.617188 137.027344 63.296875 138.796875 63.296875 C 140.429688 63.296875 141.652344 62.617188 142.46875 61.394531 C 143.285156 60.03125 143.832031 58.398438 143.832031 56.21875 "/>
<path style=" stroke:none;fill-rule:nonzero;fill:rgb(3.921569%,0%,50.196078%);fill-opacity:1;" d="M 190.921875 66.566406 L 190.921875 65.066406 C 189.832031 66.703125 188.472656 67.789062 186.566406 68.199219 C 184.796875 68.605469 182.890625 68.472656 181.121094 67.789062 C 179.355469 67.109375 177.855469 65.75 176.496094 63.84375 C 175.269531 61.9375 174.589844 59.351562 174.589844 56.21875 C 174.589844 52.542969 175.40625 49.550781 177.175781 47.234375 C 178.808594 44.921875 181.53125 43.832031 185.34375 43.832031 C 189.015625 43.695312 191.195312 44.511719 193.234375 46.148438 C 195.550781 47.917969 196.910156 50.503906 196.910156 54.722656 L 196.910156 67.382812 C 196.910156 71.464844 194.050781 78.816406 185.34375 78.273438 C 179.898438 77.863281 176.902344 75.6875 175.132812 70.511719 L 181.667969 70.511719 C 182.074219 71.328125 182.890625 72.011719 183.84375 72.417969 C 184.796875 72.828125 185.75 72.964844 186.839844 72.828125 C 187.792969 72.554688 188.746094 72.011719 189.5625 71.058594 C 190.378906 69.832031 190.785156 68.472656 190.921875 66.566406 M 180.851562 56.21875 C 180.851562 60.304688 182.074219 62.617188 184.390625 63.027344 C 186.703125 63.433594 188.472656 62.890625 189.699219 61.394531 C 190.242188 60.710938 190.648438 59.757812 190.921875 58.261719 C 191.195312 56.902344 191.195312 55.539062 190.921875 54.042969 C 190.648438 52.679688 190.242188 51.457031 189.425781 50.367188 C 188.609375 49.277344 187.519531 48.734375 186.023438 48.734375 C 183.980469 48.734375 182.621094 49.550781 181.941406 50.910156 C 181.121094 52.679688 180.851562 54.3125 180.851562 56.21875 "/>
<path style=" stroke:none;fill-rule:nonzero;fill:rgb(3.921569%,0%,50.196078%);fill-opacity:1;" d="M 169.417969 45.328125 C 167.375 44.378906 165.0625 43.832031 162.476562 43.832031 C 158.53125 43.832031 155.671875 44.921875 154.039062 46.964844 C 152.949219 48.324219 152.40625 49.957031 152.269531 52 L 158.257812 52 C 158.394531 51.046875 158.667969 50.367188 159.074219 49.820312 C 159.753906 49.140625 160.707031 48.734375 162.203125 48.734375 C 163.566406 48.734375 164.519531 48.867188 165.199219 49.277344 C 165.878906 49.6875 166.152344 50.367188 166.152344 51.320312 C 166.152344 52.136719 165.742188 52.679688 164.789062 53.089844 C 164.246094 53.359375 163.429688 53.496094 162.339844 53.632812 L 160.300781 53.90625 C 157.847656 54.179688 156.082031 54.722656 154.855469 55.402344 C 152.542969 56.765625 151.453125 58.804688 151.453125 61.664062 C 151.453125 63.84375 152.132812 65.613281 153.496094 66.835938 C 154.855469 68.0625 156.625 68.605469 158.800781 68.605469 C 172.277344 69.152344 172.003906 61.527344 172.140625 59.894531 L 172.140625 51.046875 C 172.414062 48.324219 171.460938 46.28125 169.417969 45.328125 M 166.289062 58.671875 C 166.289062 60.710938 165.605469 62.210938 164.519531 62.890625 C 163.429688 63.707031 162.203125 64.113281 160.84375 64.113281 C 160.027344 64.113281 159.210938 63.84375 158.667969 63.433594 C 158.121094 63.027344 157.714844 62.210938 157.714844 61.121094 C 157.714844 59.894531 158.257812 59.078125 159.210938 58.535156 C 159.753906 58.261719 160.707031 57.851562 162.070312 57.71875 L 163.429688 57.445312 C 164.109375 57.308594 164.65625 57.171875 165.0625 57.035156 C 165.472656 56.902344 165.878906 56.628906 166.289062 56.492188 Z M 166.289062 58.671875 "/>
<path style=" stroke:none;fill-rule:nonzero;fill:rgb(3.921569%,0%,50.196078%);fill-opacity:1;" d="M 220.320312 47.234375 C 218.277344 44.785156 215.285156 43.558594 211.335938 43.558594 C 207.253906 43.558594 204.261719 44.785156 202.355469 47.234375 C 200.3125 49.6875 199.359375 52.679688 199.359375 56.082031 C 199.359375 59.488281 200.3125 62.480469 202.355469 64.933594 C 204.394531 67.382812 207.390625 68.605469 211.335938 68.605469 C 215.421875 68.605469 218.414062 67.382812 220.320312 64.933594 C 222.363281 62.480469 223.316406 59.488281 223.316406 56.082031 C 223.316406 52.679688 222.363281 49.820312 220.320312 47.234375 M 215.421875 61.527344 C 214.46875 62.753906 213.105469 63.433594 211.335938 63.433594 C 209.566406 63.433594 208.207031 62.753906 207.253906 61.527344 C 206.300781 60.304688 205.757812 58.398438 205.757812 56.082031 C 205.757812 53.769531 206.300781 51.863281 207.253906 50.640625 C 208.207031 49.414062 209.566406 48.734375 211.335938 48.734375 C 213.105469 48.734375 214.46875 49.414062 215.421875 50.640625 C 216.375 51.863281 216.917969 53.769531 216.917969 56.082031 C 216.917969 58.398438 216.375 60.167969 215.421875 61.527344 "/>
</g>
</svg>
