<?xml version="1.0" encoding="UTF-8"?>
<svg xmlns="http://www.w3.org/2000/svg" xmlns:xlink="http://www.w3.org/1999/xlink" width="1280px" height="719px" viewBox="0 0 1278 719" version="1.1">
<g id="surface1">
<path style=" stroke:none;fill-rule:nonzero;fill:rgb(0.392157%,26.27451%,56.470588%);fill-opacity:1;" d="M 417.859375 229.488281 C 425.839844 227.691406 433.914062 226.792969 442.09375 226.792969 C 450.476562 226.792969 458.550781 227.691406 466.332031 229.488281 L 414.871094 426.085938 C 405.898438 427.683594 397.117188 428.484375 388.546875 428.484375 C 380.765625 428.484375 371.890625 427.683594 361.921875 426.085938 L 326.011719 294.125 L 289.507812 426.085938 C 280.535156 427.683594 271.953125 428.484375 263.773438 428.484375 C 255.992188 428.484375 247.121094 427.683594 237.148438 426.085938 L 185.390625 229.488281 C 193.570312 227.691406 201.644531 226.792969 209.625 226.792969 C 217.804688 226.792969 225.878906 227.691406 233.859375 229.488281 L 267.367188 368.035156 L 299.675781 229.488281 C 308.058594 227.691406 316.832031 226.792969 326.003906 226.792969 C 335.175781 226.792969 343.753906 227.691406 351.734375 229.488281 L 390.628906 368.632812 Z M 417.859375 229.488281 "/>
<path style=" stroke:none;fill-rule:nonzero;fill:rgb(0.392157%,26.27451%,56.470588%);fill-opacity:1;" d="M 536.128906 428.785156 C 520.371094 428.785156 506.605469 425.589844 494.839844 419.210938 C 483.070312 412.824219 474 403.75 467.613281 391.980469 C 461.230469 380.011719 458.042969 366.242188 458.042969 350.6875 C 458.042969 334.925781 461.332031 321.261719 467.914062 309.6875 C 474.496094 297.917969 483.667969 288.84375 495.4375 282.460938 C 507.40625 276.074219 520.972656 272.886719 536.128906 272.886719 C 551.882812 272.886719 565.648438 276.175781 577.417969 282.761719 C 589.183594 289.144531 598.257812 298.21875 604.640625 309.988281 C 611.023438 321.757812 614.210938 335.328125 614.210938 350.6875 C 614.210938 366.644531 611.023438 380.511719 604.640625 392.28125 C 598.257812 404.050781 589.183594 413.125 577.417969 419.511719 C 565.648438 425.6875 551.890625 428.785156 536.128906 428.785156 Z M 536.128906 389.878906 C 546.699219 389.878906 554.777344 386.589844 560.363281 380.003906 C 566.148438 373.222656 569.042969 363.449219 569.042969 350.679688 C 569.042969 338.308594 566.148438 328.734375 560.363281 321.953125 C 554.578125 315.167969 546.5 311.78125 536.128906 311.78125 C 525.957031 311.78125 517.875 315.269531 511.890625 322.25 C 506.109375 329.035156 503.21875 338.507812 503.21875 350.679688 C 503.21875 363.449219 506.113281 373.222656 511.890625 380.003906 C 517.683594 386.589844 525.757812 389.878906 536.128906 389.878906 Z M 536.128906 389.878906 "/>
<path style=" stroke:none;fill-rule:nonzero;fill:rgb(0.392157%,26.27451%,56.470588%);fill-opacity:1;" d="M 798.53125 273.179688 C 815.285156 273.179688 829.148438 277.367188 840.117188 285.75 C 851.089844 294.132812 856.574219 305.300781 856.574219 319.261719 L 856.574219 425.792969 L 811.996094 425.792969 L 811.996094 335.121094 C 811.996094 327.339844 809.5 321.453125 804.515625 317.464844 C 799.726562 313.277344 792.847656 311.179688 783.875 311.179688 C 775.890625 311.179688 768.210938 312.679688 760.828125 315.667969 C 763.226562 322.25 764.421875 329.433594 764.421875 337.210938 L 764.421875 425.789062 L 719.839844 425.789062 L 719.839844 335.121094 C 719.839844 327.339844 717.34375 321.453125 712.359375 317.464844 C 707.574219 313.277344 700.691406 311.179688 691.71875 311.179688 C 684.933594 311.179688 678.550781 311.980469 672.566406 313.578125 L 672.566406 425.792969 L 627.390625 425.792969 L 627.691406 292.632812 C 636.46875 286.449219 647.242188 281.660156 660 278.265625 C 672.765625 274.878906 685.234375 273.179688 697.394531 273.179688 C 706.566406 273.179688 715.148438 274.679688 723.128906 277.667969 C 731.101562 280.464844 738.085938 284.449219 744.070312 289.636719 C 751.851562 284.652344 760.628906 280.664062 770.402344 277.667969 C 780.179688 274.671875 789.558594 273.179688 798.53125 273.179688 Z M 798.53125 273.179688 "/>
<path style=" stroke:none;fill-rule:nonzero;fill:rgb(0.392157%,26.27451%,56.470588%);fill-opacity:1;" d="M 943.488281 273.179688 C 970.8125 273.179688 992.160156 280.363281 1007.515625 294.722656 C 1023.078125 309.089844 1030.859375 329.433594 1030.859375 355.765625 C 1030.859375 377.507812 1025.46875 395.164062 1014.699219 408.730469 C 1004.128906 422.097656 988.074219 428.785156 966.527344 428.785156 C 959.546875 428.785156 952.46875 427.683594 945.289062 425.496094 C 938.105469 423.097656 931.421875 419.808594 925.238281 415.621094 L 925.238281 470.976562 C 920.453125 474.765625 913.269531 478.160156 903.699219 481.152344 C 894.320312 484.140625 886.445312 485.636719 880.0625 485.636719 L 880.0625 284.851562 C 887.644531 281.261719 897.015625 278.464844 908.183594 276.46875 C 919.554688 274.273438 931.324219 273.179688 943.488281 273.179688 Z M 947.378906 391.074219 C 959.945312 391.074219 969.523438 387.878906 976.105469 381.503906 C 982.6875 375.117188 985.976562 364.746094 985.976562 350.378906 C 985.976562 338.410156 982.582031 328.535156 975.804688 320.753906 C 969.222656 312.972656 959.34375 309.082031 946.1875 309.082031 C 939.601562 309.082031 932.621094 309.683594 925.238281 310.882812 L 925.238281 388.980469 C 932.222656 390.378906 939.601562 391.074219 947.378906 391.074219 Z M 947.378906 391.074219 "/>
<path style=" stroke:none;fill-rule:nonzero;fill:rgb(0.392157%,26.27451%,56.470588%);fill-opacity:1;" d="M 1069.273438 253.128906 C 1062.890625 253.128906 1057.40625 250.929688 1052.820312 246.542969 C 1048.433594 241.957031 1046.234375 236.472656 1046.234375 230.085938 C 1046.234375 223.703125 1048.527344 218.316406 1053.117188 213.929688 C 1057.703125 209.34375 1063.089844 207.046875 1069.273438 207.046875 C 1075.65625 207.046875 1081.140625 209.34375 1085.726562 213.929688 C 1090.320312 218.316406 1092.609375 223.703125 1092.609375 230.085938 C 1092.609375 236.269531 1090.320312 241.65625 1085.726562 246.246094 C 1081.140625 250.832031 1075.648438 253.128906 1069.273438 253.128906 Z M 1046.835938 277.367188 C 1053.417969 274.570312 1061 273.179688 1069.574219 273.179688 C 1077.953125 273.179688 1085.429688 274.578125 1092.011719 277.367188 L 1092.011719 425.789062 L 1046.835938 425.789062 Z M 1046.835938 277.367188 "/>
<path style=" stroke:none;fill-rule:nonzero;fill:rgb(0.392157%,26.27451%,56.470588%);fill-opacity:1;" d="M 229.765625 504.882812 L 229.765625 474.140625 C 229.765625 471.050781 231.929688 468.402344 234.964844 467.84375 C 249.976562 465.085938 294.679688 457.492188 331.789062 457.492188 C 368.988281 457.492188 414.910156 465.121094 430.199219 467.863281 C 433.253906 468.410156 435.425781 471.066406 435.425781 474.167969 L 435.425781 505.042969 C 435.425781 509.503906 430.992188 512.800781 426.652344 511.761719 C 412.707031 508.433594 381.835938 502.839844 331.792969 502.839844 C 282.339844 502.839844 252.390625 508.300781 238.691406 511.640625 C 234.308594 512.714844 229.765625 509.390625 229.765625 504.882812 Z M 229.765625 504.882812 "/>
</g>
</svg>
